<svg width="166" height="30" viewBox="0 0 166 30" fill="none" xmlns="http://www.w3.org/2000/svg">
<path d="M11.4372 29.56C8.02385 29.56 5.31719 28.6 3.31719 26.68C1.31719 24.7333 0.317188 21.9333 0.317188 18.28V11.72C0.317188 8.06667 1.31719 5.28 3.31719 3.36C5.31719 1.41333 8.02385 0.439998 11.4372 0.439998C14.7972 0.439998 17.3839 1.37333 19.1972 3.24C21.0372 5.10667 21.9572 7.65333 21.9572 10.88V11.12H17.6772V10.76C17.6772 8.86667 17.1572 7.32 16.1172 6.12C15.1039 4.92 13.5439 4.32 11.4372 4.32C9.30385 4.32 7.63719 4.97333 6.43719 6.28C5.23719 7.56 4.63719 9.34667 4.63719 11.64V18.36C4.63719 20.6267 5.23719 22.4133 6.43719 23.72C7.63719 25.0267 9.30385 25.68 11.4372 25.68C13.5439 25.68 15.1039 25.08 16.1172 23.88C17.1572 22.6533 17.6772 21.1067 17.6772 19.24V18.56H21.9572V19.12C21.9572 22.3467 21.0372 24.8933 19.1972 26.76C17.3839 28.6267 14.7972 29.56 11.4372 29.56ZM36.1003 29.56C34.127 29.56 32.367 29.16 30.8203 28.36C29.3003 27.5333 28.1003 26.36 27.2203 24.84C26.3403 23.32 25.9003 21.52 25.9003 19.44V18.84C25.9003 16.76 26.3403 14.9733 27.2203 13.48C28.1003 11.96 29.3003 10.7867 30.8203 9.96C32.367 9.13333 34.127 8.72 36.1003 8.72C38.0736 8.72 39.8336 9.13333 41.3803 9.96C42.927 10.7867 44.1403 11.96 45.0203 13.48C45.9003 14.9733 46.3403 16.76 46.3403 18.84V19.44C46.3403 21.52 45.9003 23.32 45.0203 24.84C44.1403 26.36 42.927 27.5333 41.3803 28.36C39.8336 29.16 38.0736 29.56 36.1003 29.56ZM36.1003 25.88C37.9136 25.88 39.3803 25.3067 40.5003 24.16C41.647 22.9867 42.2203 21.3733 42.2203 19.32V18.96C42.2203 16.9067 41.6603 15.3067 40.5403 14.16C39.4203 12.9867 37.9403 12.4 36.1003 12.4C34.3136 12.4 32.847 12.9867 31.7003 14.16C30.5803 15.3067 30.0203 16.9067 30.0203 18.96V19.32C30.0203 21.3733 30.5803 22.9867 31.7003 24.16C32.847 25.3067 34.3136 25.88 36.1003 25.88ZM59.6297 29.56C58.003 29.56 56.4964 29.16 55.1097 28.36C53.723 27.56 52.603 26.4133 51.7497 24.92C50.923 23.4 50.5097 21.5733 50.5097 19.44V18.84C50.5097 16.7333 50.923 14.92 51.7497 13.4C52.5764 11.88 53.683 10.72 55.0697 9.92C56.4564 9.12 57.9764 8.72 59.6297 8.72C60.9097 8.72 61.9764 8.88 62.8297 9.2C63.7097 9.52 64.4297 9.93333 64.9897 10.44C65.5497 10.92 65.9764 11.4267 66.2697 11.96H66.9097V0.999998H71.0297V29H66.9897V26.2H66.3497C65.843 27.0533 65.0697 27.8267 64.0297 28.52C63.0164 29.2133 61.5497 29.56 59.6297 29.56ZM60.7897 25.96C62.5764 25.96 64.043 25.3867 65.1897 24.24C66.363 23.0933 66.9497 21.4533 66.9497 19.32V18.96C66.9497 16.8533 66.3764 15.2267 65.2297 14.08C64.083 12.9333 62.603 12.36 60.7897 12.36C59.0297 12.36 57.563 12.9333 56.3897 14.08C55.243 15.2267 54.6697 16.8533 54.6697 18.96V19.32C54.6697 21.4533 55.243 23.0933 56.3897 24.24C57.563 25.3867 59.0297 25.96 60.7897 25.96ZM86.1347 29.56C84.1347 29.56 82.388 29.1467 80.8947 28.32C79.4014 27.4667 78.228 26.28 77.3747 24.76C76.548 23.2133 76.1347 21.4267 76.1347 19.4V18.92C76.1347 16.8667 76.548 15.08 77.3747 13.56C78.2014 12.0133 79.348 10.8267 80.8147 10C82.308 9.14667 84.028 8.72 85.9747 8.72C87.868 8.72 89.5214 9.14667 90.9347 10C92.3747 10.8267 93.4947 11.9867 94.2947 13.48C95.0947 14.9733 95.4947 16.72 95.4947 18.72V20.28H80.3347C80.388 22.0133 80.9614 23.4 82.0547 24.44C83.1747 25.4533 84.5614 25.96 86.2147 25.96C87.7614 25.96 88.9214 25.6133 89.6947 24.92C90.4947 24.2267 91.108 23.4267 91.5347 22.52L94.9347 24.28C94.5614 25.0267 94.0147 25.8133 93.2947 26.64C92.6014 27.4667 91.6814 28.16 90.5347 28.72C89.388 29.28 87.9214 29.56 86.1347 29.56ZM80.3747 17.12H91.2947C91.188 15.6267 90.6547 14.4667 89.6947 13.64C88.7347 12.7867 87.4814 12.36 85.9347 12.36C84.388 12.36 83.1214 12.7867 82.1347 13.64C81.1747 14.4667 80.588 15.6267 80.3747 17.12Z" fill="#E07B67"/>
<path d="M100.334 29V0.999998H104.654V25.08H118.134V29H100.334ZM128.332 29.56C126.919 29.56 125.652 29.32 124.532 28.84C123.439 28.36 122.559 27.6533 121.892 26.72C121.252 25.7867 120.932 24.6533 120.932 23.32C120.932 21.96 121.252 20.84 121.892 19.96C122.559 19.0533 123.452 18.3733 124.572 17.92C125.719 17.4667 127.012 17.24 128.452 17.24H134.452V15.96C134.452 14.8133 134.105 13.8933 133.412 13.2C132.719 12.5067 131.652 12.16 130.212 12.16C128.799 12.16 127.719 12.4933 126.972 13.16C126.225 13.8267 125.732 14.6933 125.492 15.76L121.652 14.52C121.972 13.4533 122.479 12.4933 123.172 11.64C123.892 10.76 124.839 10.0533 126.012 9.52C127.185 8.98667 128.599 8.72 130.252 8.72C132.812 8.72 134.825 9.37333 136.292 10.68C137.759 11.9867 138.492 13.84 138.492 16.24V24.36C138.492 25.16 138.865 25.56 139.612 25.56H141.292V29H138.212C137.279 29 136.519 28.76 135.932 28.28C135.345 27.8 135.052 27.1467 135.052 26.32V26.2H134.452C134.239 26.6 133.919 27.0667 133.492 27.6C133.065 28.1333 132.439 28.6 131.612 29C130.785 29.3733 129.692 29.56 128.332 29.56ZM128.932 26.16C130.585 26.16 131.919 25.6933 132.932 24.76C133.945 23.8 134.452 22.4933 134.452 20.84V20.44H128.692C127.599 20.44 126.719 20.68 126.052 21.16C125.385 21.6133 125.052 22.2933 125.052 23.2C125.052 24.1067 125.399 24.8267 126.092 25.36C126.785 25.8933 127.732 26.16 128.932 26.16ZM156.698 29.56C154.778 29.56 153.298 29.2133 152.258 28.52C151.244 27.8267 150.484 27.0533 149.978 26.2H149.338V29H145.298V0.999998H149.418V11.96H150.058C150.378 11.4267 150.804 10.92 151.338 10.44C151.871 9.93333 152.578 9.52 153.458 9.2C154.338 8.88 155.418 8.72 156.698 8.72C158.351 8.72 159.871 9.12 161.258 9.92C162.644 10.72 163.751 11.88 164.578 13.4C165.404 14.92 165.818 16.7333 165.818 18.84V19.44C165.818 21.5733 165.391 23.4 164.538 24.92C163.711 26.4133 162.604 27.56 161.218 28.36C159.858 29.16 158.351 29.56 156.698 29.56ZM155.498 25.96C157.284 25.96 158.751 25.3867 159.898 24.24C161.071 23.0933 161.658 21.4533 161.658 19.32V18.96C161.658 16.8533 161.084 15.2267 159.938 14.08C158.791 12.9333 157.311 12.36 155.498 12.36C153.738 12.36 152.271 12.9333 151.098 14.08C149.951 15.2267 149.378 16.8533 149.378 18.96V19.32C149.378 21.4533 149.951 23.0933 151.098 24.24C152.271 25.3867 153.738 25.96 155.498 25.96Z" fill="white"/>
</svg>
